<svg xmlns="http://www.w3.org/2000/svg" xml:space="preserve" viewBox="0 0 448 448" version="1.1" >
    <path d="m224,105.2c-81.9,0-145.7,48.8-224,128,67.4,67.7,124,128,224,128,99.9,0,173.4-76.39,224-126.6-51.8-58.8-125.2-129.4-224-129.4zm0,36.69c49.4,0,89.59,41.01,89.59,91.31,0,50.4-40.19,91.31-89.59,91.31s-89.59-41.01-89.59-91.31c0-50.4,40.19-91.31,89.59-91.31zm0,38c-28.8,0-52.31,23.91-52.31,53.31s23.51,53.31,52.31,53.31,52.31-23.91,52.31-53.31c0-2.3-0.2062-4.606-0.4062-6.906-5.5,4.3-12.31,6.906-19.81,6.906-17.8,0-32.09-14.3-32.09-32,0-7.9,2.894-15.09,7.594-20.69-2.5-0.4-4.994-0.625-7.594-0.625z" />
</svg>